<mxfile host="app.diagrams.net" modified="2023-02-27T13:33:47.039Z" agent="5.0 (Windows NT 10.0; Win64; x64) AppleWebKit/537.36 (KHTML, like Gecko) Chrome/110.0.0.0 Safari/537.36 Edg/110.0.1587.56" etag="iO-UC5VSuNiroJAlEo_C" version="20.8.23" type="github">
  <diagram name="Página-1" id="D3V9jQPWNb1hQDFw4MQM">
    <mxGraphModel dx="1894" dy="584" grid="1" gridSize="10" guides="1" tooltips="1" connect="1" arrows="1" fold="1" page="1" pageScale="1" pageWidth="827" pageHeight="1169" math="0" shadow="0">
      <root>
        <mxCell id="0" />
        <mxCell id="1" parent="0" />
        <mxCell id="OGgYQzT6ud-Ssf50_vJC-56" value="" style="rounded=1;whiteSpace=wrap;html=1;opacity=30;" parent="1" vertex="1">
          <mxGeometry x="-360" y="830" width="770" height="480" as="geometry" />
        </mxCell>
        <mxCell id="OGgYQzT6ud-Ssf50_vJC-55" value="" style="rounded=1;whiteSpace=wrap;html=1;opacity=30;" parent="1" vertex="1">
          <mxGeometry x="810" y="830" width="770" height="480" as="geometry" />
        </mxCell>
        <mxCell id="OGgYQzT6ud-Ssf50_vJC-52" value="" style="rounded=1;whiteSpace=wrap;html=1;opacity=20;" parent="1" vertex="1">
          <mxGeometry x="-140" width="1050" height="700" as="geometry" />
        </mxCell>
        <mxCell id="OGgYQzT6ud-Ssf50_vJC-51" value="" style="rounded=1;whiteSpace=wrap;html=1;opacity=30;" parent="1" vertex="1">
          <mxGeometry x="1060" width="1160" height="710" as="geometry" />
        </mxCell>
        <mxCell id="OGgYQzT6ud-Ssf50_vJC-7" style="edgeStyle=orthogonalEdgeStyle;rounded=0;orthogonalLoop=1;jettySize=auto;html=1;entryX=1.015;entryY=0.207;entryDx=0;entryDy=0;entryPerimeter=0;" parent="1" source="0ui3gOTNWa6qhWBBb9ut-65" target="0ui3gOTNWa6qhWBBb9ut-60" edge="1">
          <mxGeometry relative="1" as="geometry">
            <mxPoint x="1757" y="302" as="targetPoint" />
            <Array as="points">
              <mxPoint x="1787" y="497" />
              <mxPoint x="1787" y="279" />
            </Array>
          </mxGeometry>
        </mxCell>
        <mxCell id="0ui3gOTNWa6qhWBBb9ut-65" value="[VO] Data " style="swimlane;childLayout=stackLayout;horizontal=1;startSize=30;horizontalStack=0;rounded=1;fontSize=14;fontStyle=0;strokeWidth=2;resizeParent=0;resizeLast=1;shadow=0;dashed=0;align=center;" parent="1" vertex="1">
          <mxGeometry x="1853" y="452" width="130" height="90" as="geometry" />
        </mxCell>
        <mxCell id="0ui3gOTNWa6qhWBBb9ut-66" value="+personalID&#xa;+name&#xa;+email&#xa;+phone&#xa;" style="align=left;spacingLeft=4;fontSize=12;verticalAlign=top;resizable=0;rotatable=0;part=1;" parent="0ui3gOTNWa6qhWBBb9ut-65" vertex="1">
          <mxGeometry y="30" width="130" height="60" as="geometry" />
        </mxCell>
        <mxCell id="OGgYQzT6ud-Ssf50_vJC-46" style="edgeStyle=orthogonalEdgeStyle;rounded=0;orthogonalLoop=1;jettySize=auto;html=1;exitX=0;exitY=0.75;exitDx=0;exitDy=0;" parent="1" source="0ui3gOTNWa6qhWBBb9ut-3" target="OGgYQzT6ud-Ssf50_vJC-39" edge="1">
          <mxGeometry relative="1" as="geometry">
            <Array as="points">
              <mxPoint x="230" y="422" />
              <mxPoint x="230" y="720" />
              <mxPoint x="10" y="720" />
            </Array>
          </mxGeometry>
        </mxCell>
        <mxCell id="OGgYQzT6ud-Ssf50_vJC-47" style="edgeStyle=orthogonalEdgeStyle;rounded=0;orthogonalLoop=1;jettySize=auto;html=1;exitX=1;exitY=0.75;exitDx=0;exitDy=0;entryX=0.5;entryY=0;entryDx=0;entryDy=0;" parent="1" source="0ui3gOTNWa6qhWBBb9ut-3" target="OGgYQzT6ud-Ssf50_vJC-22" edge="1">
          <mxGeometry relative="1" as="geometry">
            <Array as="points">
              <mxPoint x="630" y="423" />
              <mxPoint x="630" y="720" />
              <mxPoint x="870" y="720" />
              <mxPoint x="870" y="880" />
              <mxPoint x="1070" y="880" />
            </Array>
          </mxGeometry>
        </mxCell>
        <mxCell id="0ui3gOTNWa6qhWBBb9ut-3" value="&lt;p style=&quot;margin:0px;margin-top:4px;text-align:center;&quot;&gt;&lt;b&gt;[AR] SaleOrder&lt;/b&gt;&lt;/p&gt;&lt;hr size=&quot;1&quot;&gt;&lt;p style=&quot;margin:0px;margin-left:4px;&quot;&gt;SaleOrderID&lt;/p&gt;&lt;p style=&quot;margin:0px;margin-left:4px;&quot;&gt;ClientID&lt;/p&gt;&lt;p style=&quot;margin:0px;margin-left:4px;&quot;&gt;SalesmanID&lt;/p&gt;&lt;p style=&quot;margin:0px;margin-left:4px;&quot;&gt;List&amp;lt;Item&amp;gt;&lt;/p&gt;&lt;p style=&quot;margin:0px;margin-left:4px;&quot;&gt;Total&lt;/p&gt;&lt;p style=&quot;margin:0px;margin-left:4px;&quot;&gt;SalesCalendarID&lt;/p&gt;&lt;p style=&quot;margin:0px;margin-left:4px;&quot;&gt;&lt;span style=&quot;background-color: initial;&quot;&gt;ShippingCalendarID&lt;/span&gt;&lt;br&gt;&lt;/p&gt;&lt;p style=&quot;margin:0px;margin-left:4px;&quot;&gt;&lt;span style=&quot;background-color: initial;&quot;&gt;RouteID&lt;/span&gt;&lt;/p&gt;&lt;p style=&quot;margin:0px;margin-left:4px;&quot;&gt;Status&lt;/p&gt;&lt;hr size=&quot;1&quot;&gt;&lt;p style=&quot;margin:0px;margin-left:4px;&quot;&gt;assignSalesman()&lt;/p&gt;&lt;p style=&quot;margin:0px;margin-left:4px;&quot;&gt;assignClient()&lt;/p&gt;&lt;p style=&quot;margin:0px;margin-left:4px;&quot;&gt;addItem()&lt;/p&gt;&lt;p style=&quot;margin:0px;margin-left:4px;&quot;&gt;setSaleDate()&lt;/p&gt;&lt;p style=&quot;margin:0px;margin-left:4px;&quot;&gt;setStatus()&lt;/p&gt;&lt;p style=&quot;margin:0px;margin-left:4px;&quot;&gt;&lt;br&gt;&lt;/p&gt;&lt;p style=&quot;margin:0px;margin-left:4px;&quot;&gt;&lt;br&gt;&lt;/p&gt;" style="verticalAlign=top;align=left;overflow=fill;fontSize=12;fontFamily=Helvetica;html=1;fillColor=#fff2cc;strokeColor=#d6b656;" parent="1" vertex="1">
          <mxGeometry x="375" y="212" width="130" height="270" as="geometry" />
        </mxCell>
        <mxCell id="0ui3gOTNWa6qhWBBb9ut-22" style="edgeStyle=orthogonalEdgeStyle;rounded=0;orthogonalLoop=1;jettySize=auto;html=1;fillColor=#fff2cc;strokeColor=#d6b656;" parent="1" source="0ui3gOTNWa6qhWBBb9ut-13" target="0ui3gOTNWa6qhWBBb9ut-3" edge="1">
          <mxGeometry relative="1" as="geometry" />
        </mxCell>
        <mxCell id="OGgYQzT6ud-Ssf50_vJC-11" style="edgeStyle=orthogonalEdgeStyle;rounded=0;orthogonalLoop=1;jettySize=auto;html=1;exitX=0.5;exitY=0;exitDx=0;exitDy=0;entryX=0.5;entryY=0;entryDx=0;entryDy=0;" parent="1" source="0ui3gOTNWa6qhWBBb9ut-13" target="0ui3gOTNWa6qhWBBb9ut-74" edge="1">
          <mxGeometry relative="1" as="geometry" />
        </mxCell>
        <mxCell id="0ui3gOTNWa6qhWBBb9ut-13" value="&lt;p style=&quot;margin:0px;margin-top:4px;text-align:center;&quot;&gt;&lt;b&gt;[AR] Route&lt;/b&gt;&lt;/p&gt;&lt;hr size=&quot;1&quot;&gt;&lt;p style=&quot;margin:0px;margin-left:4px;&quot;&gt;RouteID&lt;/p&gt;&lt;p style=&quot;margin:0px;margin-left:4px;&quot;&gt;name&lt;/p&gt;&lt;p style=&quot;margin:0px;margin-left:4px;&quot;&gt;List&amp;lt;Client&amp;gt;&lt;/p&gt;&lt;p style=&quot;margin:0px;margin-left:4px;&quot;&gt;List&amp;lt;Salesman&amp;gt;&lt;/p&gt;&lt;hr size=&quot;1&quot;&gt;&lt;p style=&quot;margin:0px;margin-left:4px;&quot;&gt;addClient()&lt;/p&gt;&lt;p style=&quot;margin:0px;margin-left:4px;&quot;&gt;addSalesman()&lt;/p&gt;" style="verticalAlign=top;align=left;overflow=fill;fontSize=12;fontFamily=Helvetica;html=1;fillColor=#fff2cc;strokeColor=#d6b656;" parent="1" vertex="1">
          <mxGeometry x="380" y="40" width="120" height="140" as="geometry" />
        </mxCell>
        <mxCell id="0ui3gOTNWa6qhWBBb9ut-18" value="" style="group;" parent="1" vertex="1" connectable="0">
          <mxGeometry x="500" y="220" width="381.45" height="340" as="geometry" />
        </mxCell>
        <mxCell id="0ui3gOTNWa6qhWBBb9ut-2" value="&lt;p style=&quot;margin:0px;margin-top:4px;text-align:center;&quot;&gt;&lt;b&gt;[AR] Salesman&lt;/b&gt;&lt;/p&gt;&lt;hr size=&quot;1&quot;&gt;&lt;p style=&quot;margin:0px;margin-left:4px;&quot;&gt;SalesmanID&lt;/p&gt;&lt;p style=&quot;margin:0px;margin-left:4px;&quot;&gt;Data&lt;/p&gt;&lt;p style=&quot;margin:0px;margin-left:4px;&quot;&gt;Account&lt;/p&gt;&lt;hr size=&quot;1&quot;&gt;&lt;p style=&quot;border-color: var(--border-color); margin: 0px 0px 0px 4px;&quot;&gt;updateData()&lt;/p&gt;&lt;p style=&quot;border-color: var(--border-color); margin: 0px 0px 0px 4px;&quot;&gt;updateAccount()&lt;/p&gt;" style="verticalAlign=top;align=left;overflow=fill;fontSize=12;fontFamily=Helvetica;html=1;fillColor=#fff2cc;strokeColor=#d6b656;" parent="0ui3gOTNWa6qhWBBb9ut-18" vertex="1">
          <mxGeometry x="80" width="120" height="120" as="geometry" />
        </mxCell>
        <mxCell id="0ui3gOTNWa6qhWBBb9ut-32" value="" style="group;" parent="0ui3gOTNWa6qhWBBb9ut-18" vertex="1" connectable="0">
          <mxGeometry x="200" y="70" width="181.45" height="270" as="geometry" />
        </mxCell>
        <mxCell id="0ui3gOTNWa6qhWBBb9ut-31" style="edgeStyle=orthogonalEdgeStyle;rounded=0;orthogonalLoop=1;jettySize=auto;html=1;exitX=0.008;exitY=0.228;exitDx=0;exitDy=0;exitPerimeter=0;fillColor=#647687;strokeColor=#314354;" parent="0ui3gOTNWa6qhWBBb9ut-32" source="0ui3gOTNWa6qhWBBb9ut-29" edge="1">
          <mxGeometry relative="1" as="geometry">
            <mxPoint as="targetPoint" />
            <Array as="points">
              <mxPoint x="35.942555298778466" y="45" />
              <mxPoint x="35.942555298778466" />
              <mxPoint />
            </Array>
          </mxGeometry>
        </mxCell>
        <mxCell id="0ui3gOTNWa6qhWBBb9ut-29" value="[VO] Account" style="swimlane;childLayout=stackLayout;horizontal=1;startSize=30;horizontalStack=0;rounded=1;fontSize=14;fontStyle=0;strokeWidth=2;resizeParent=0;resizeLast=1;shadow=0;dashed=0;align=center;" parent="0ui3gOTNWa6qhWBBb9ut-32" vertex="1">
          <mxGeometry x="49.66063057114563" y="20" width="131.78936942885437" height="110" as="geometry" />
        </mxCell>
        <mxCell id="0ui3gOTNWa6qhWBBb9ut-30" value="+email&#xa;+user&#xa;+password&#xa;" style="align=left;spacingLeft=4;fontSize=12;verticalAlign=top;resizable=0;rotatable=0;part=1;" parent="0ui3gOTNWa6qhWBBb9ut-29" vertex="1">
          <mxGeometry y="30" width="131.78936942885437" height="80" as="geometry" />
        </mxCell>
        <mxCell id="0ui3gOTNWa6qhWBBb9ut-6" value="[VO] Data " style="swimlane;childLayout=stackLayout;horizontal=1;startSize=30;horizontalStack=0;rounded=1;fontSize=14;fontStyle=0;strokeWidth=2;resizeParent=0;resizeLast=1;shadow=0;dashed=0;align=center;" parent="0ui3gOTNWa6qhWBBb9ut-32" vertex="1">
          <mxGeometry x="-29.998296467481026" y="170" width="131.78936942885437" height="100" as="geometry" />
        </mxCell>
        <mxCell id="0ui3gOTNWa6qhWBBb9ut-7" value="+personalID&#xa;+name&#xa;+email&#xa;+phone&#xa;" style="align=left;spacingLeft=4;fontSize=12;verticalAlign=top;resizable=0;rotatable=0;part=1;" parent="0ui3gOTNWa6qhWBBb9ut-6" vertex="1">
          <mxGeometry y="30" width="131.78936942885437" height="70" as="geometry" />
        </mxCell>
        <mxCell id="0ui3gOTNWa6qhWBBb9ut-16" style="edgeStyle=orthogonalEdgeStyle;rounded=0;orthogonalLoop=1;jettySize=auto;html=1;exitX=0.5;exitY=0;exitDx=0;exitDy=0;fillColor=#647687;strokeColor=#314354;" parent="0ui3gOTNWa6qhWBBb9ut-32" source="0ui3gOTNWa6qhWBBb9ut-6" edge="1">
          <mxGeometry relative="1" as="geometry">
            <mxPoint as="targetPoint" />
            <Array as="points">
              <mxPoint x="36" />
            </Array>
          </mxGeometry>
        </mxCell>
        <mxCell id="0ui3gOTNWa6qhWBBb9ut-19" value="" style="group;" parent="1" vertex="1" connectable="0">
          <mxGeometry x="95" y="220" width="250" height="320" as="geometry" />
        </mxCell>
        <mxCell id="0ui3gOTNWa6qhWBBb9ut-4" value="&lt;p style=&quot;margin:0px;margin-top:4px;text-align:center;&quot;&gt;&lt;b&gt;[AR] Client&lt;/b&gt;&lt;/p&gt;&lt;hr size=&quot;1&quot;&gt;&lt;p style=&quot;margin:0px;margin-left:4px;&quot;&gt;ClientID&lt;/p&gt;&lt;p style=&quot;margin:0px;margin-left:4px;&quot;&gt;Data&lt;/p&gt;&lt;p style=&quot;margin:0px;margin-left:4px;&quot;&gt;Account&lt;/p&gt;&lt;p style=&quot;margin:0px;margin-left:4px;&quot;&gt;LocationID&lt;/p&gt;&lt;hr size=&quot;1&quot;&gt;&lt;p style=&quot;margin:0px;margin-left:4px;&quot;&gt;updateData()&lt;/p&gt;&lt;p style=&quot;margin:0px;margin-left:4px;&quot;&gt;updateAccount()&lt;/p&gt;&lt;p style=&quot;margin:0px;margin-left:4px;&quot;&gt;setCoordinates()&lt;/p&gt;&lt;p style=&quot;margin:0px;margin-left:4px;&quot;&gt;getDistance()&lt;/p&gt;&lt;p style=&quot;margin:0px;margin-left:4px;&quot;&gt;getRouteToLocation()&lt;/p&gt;&lt;p style=&quot;margin:0px;margin-left:4px;&quot;&gt;&lt;br&gt;&lt;/p&gt;" style="verticalAlign=top;align=left;overflow=fill;fontSize=12;fontFamily=Helvetica;html=1;fillColor=#fff2cc;strokeColor=#d6b656;" parent="0ui3gOTNWa6qhWBBb9ut-19" vertex="1">
          <mxGeometry x="80" width="170" height="180" as="geometry" />
        </mxCell>
        <mxCell id="0ui3gOTNWa6qhWBBb9ut-9" value="[VO] Data " style="swimlane;childLayout=stackLayout;horizontal=1;startSize=30;horizontalStack=0;rounded=1;fontSize=14;fontStyle=0;strokeWidth=2;resizeParent=0;resizeLast=1;shadow=0;dashed=0;align=center;" parent="0ui3gOTNWa6qhWBBb9ut-19" vertex="1">
          <mxGeometry y="210" width="110" height="110" as="geometry" />
        </mxCell>
        <mxCell id="0ui3gOTNWa6qhWBBb9ut-10" value="+personalID&#xa;+name&#xa;+email&#xa;+phone&#xa;+adress&#xa;&#xa;" style="align=left;spacingLeft=4;fontSize=12;verticalAlign=top;resizable=0;rotatable=0;part=1;" parent="0ui3gOTNWa6qhWBBb9ut-9" vertex="1">
          <mxGeometry y="30" width="110" height="80" as="geometry" />
        </mxCell>
        <mxCell id="0ui3gOTNWa6qhWBBb9ut-15" style="edgeStyle=orthogonalEdgeStyle;rounded=0;orthogonalLoop=1;jettySize=auto;html=1;entryX=0;entryY=0.283;entryDx=0;entryDy=0;entryPerimeter=0;fillColor=#647687;strokeColor=#314354;" parent="0ui3gOTNWa6qhWBBb9ut-19" source="0ui3gOTNWa6qhWBBb9ut-9" target="0ui3gOTNWa6qhWBBb9ut-4" edge="1">
          <mxGeometry relative="1" as="geometry">
            <mxPoint x="80" y="50" as="targetPoint" />
            <Array as="points">
              <mxPoint x="55" y="51" />
            </Array>
          </mxGeometry>
        </mxCell>
        <mxCell id="0ui3gOTNWa6qhWBBb9ut-20" style="edgeStyle=orthogonalEdgeStyle;rounded=0;orthogonalLoop=1;jettySize=auto;html=1;entryX=0.996;entryY=0.056;entryDx=0;entryDy=0;entryPerimeter=0;fillColor=#6d8764;strokeColor=#3A5431;" parent="1" source="0ui3gOTNWa6qhWBBb9ut-2" target="0ui3gOTNWa6qhWBBb9ut-3" edge="1">
          <mxGeometry relative="1" as="geometry">
            <mxPoint x="625" y="240" as="sourcePoint" />
            <Array as="points">
              <mxPoint x="565" y="235" />
            </Array>
          </mxGeometry>
        </mxCell>
        <mxCell id="0ui3gOTNWa6qhWBBb9ut-21" style="edgeStyle=orthogonalEdgeStyle;rounded=0;orthogonalLoop=1;jettySize=auto;html=1;exitX=1;exitY=0.053;exitDx=0;exitDy=0;exitPerimeter=0;fillColor=#647687;strokeColor=#314354;" parent="1" source="0ui3gOTNWa6qhWBBb9ut-4" edge="1">
          <mxGeometry relative="1" as="geometry">
            <mxPoint x="205" y="200" as="sourcePoint" />
            <mxPoint x="375" y="230" as="targetPoint" />
          </mxGeometry>
        </mxCell>
        <mxCell id="0ui3gOTNWa6qhWBBb9ut-23" style="edgeStyle=orthogonalEdgeStyle;rounded=0;orthogonalLoop=1;jettySize=auto;html=1;exitX=0.5;exitY=0;exitDx=0;exitDy=0;fillColor=#647687;strokeColor=#314354;entryX=0;entryY=0.5;entryDx=0;entryDy=0;" parent="1" source="0ui3gOTNWa6qhWBBb9ut-4" target="0ui3gOTNWa6qhWBBb9ut-13" edge="1">
          <mxGeometry relative="1" as="geometry">
            <mxPoint x="380" y="100" as="targetPoint" />
            <Array as="points">
              <mxPoint x="260" y="110" />
            </Array>
          </mxGeometry>
        </mxCell>
        <mxCell id="0ui3gOTNWa6qhWBBb9ut-24" style="edgeStyle=orthogonalEdgeStyle;rounded=0;orthogonalLoop=1;jettySize=auto;html=1;exitX=0.5;exitY=0;exitDx=0;exitDy=0;fillColor=#6d8764;strokeColor=#3A5431;" parent="1" source="0ui3gOTNWa6qhWBBb9ut-2" edge="1">
          <mxGeometry relative="1" as="geometry">
            <mxPoint x="501" y="120" as="targetPoint" />
            <Array as="points">
              <mxPoint x="625" y="120" />
              <mxPoint x="501" y="120" />
            </Array>
          </mxGeometry>
        </mxCell>
        <mxCell id="0ui3gOTNWa6qhWBBb9ut-25" value="[VO] Account" style="swimlane;childLayout=stackLayout;horizontal=1;startSize=30;horizontalStack=0;rounded=1;fontSize=14;fontStyle=0;strokeWidth=2;resizeParent=0;resizeLast=1;shadow=0;dashed=0;align=center;" parent="1" vertex="1">
          <mxGeometry x="15" y="290" width="110" height="110" as="geometry" />
        </mxCell>
        <mxCell id="0ui3gOTNWa6qhWBBb9ut-26" value="+email&#xa;+user&#xa;+password&#xa;" style="align=left;spacingLeft=4;fontSize=12;verticalAlign=top;resizable=0;rotatable=0;part=1;" parent="0ui3gOTNWa6qhWBBb9ut-25" vertex="1">
          <mxGeometry y="30" width="110" height="80" as="geometry" />
        </mxCell>
        <mxCell id="0ui3gOTNWa6qhWBBb9ut-28" style="edgeStyle=orthogonalEdgeStyle;rounded=0;orthogonalLoop=1;jettySize=auto;html=1;entryX=0;entryY=0.285;entryDx=0;entryDy=0;entryPerimeter=0;fillColor=#647687;strokeColor=#314354;" parent="1" source="0ui3gOTNWa6qhWBBb9ut-26" target="0ui3gOTNWa6qhWBBb9ut-4" edge="1">
          <mxGeometry relative="1" as="geometry">
            <mxPoint x="165" y="320" as="targetPoint" />
          </mxGeometry>
        </mxCell>
        <mxCell id="0ui3gOTNWa6qhWBBb9ut-42" style="edgeStyle=orthogonalEdgeStyle;rounded=0;orthogonalLoop=1;jettySize=auto;html=1;entryX=0.678;entryY=1.002;entryDx=0;entryDy=0;entryPerimeter=0;fillColor=#647687;strokeColor=#314354;" parent="1" source="0ui3gOTNWa6qhWBBb9ut-33" target="0ui3gOTNWa6qhWBBb9ut-3" edge="1">
          <mxGeometry relative="1" as="geometry" />
        </mxCell>
        <mxCell id="0ui3gOTNWa6qhWBBb9ut-33" value="&lt;p style=&quot;margin:0px;margin-top:4px;text-align:center;&quot;&gt;&lt;b&gt;[AR] SalesCalendar&lt;/b&gt;&lt;/p&gt;&lt;hr size=&quot;1&quot;&gt;&lt;p style=&quot;margin:0px;margin-left:4px;&quot;&gt;CalendarID&lt;/p&gt;&lt;p style=&quot;margin:0px;margin-left:4px;&quot;&gt;List&amp;lt;SaleDate&amp;gt;&lt;/p&gt;&lt;p style=&quot;margin:0px;margin-left:4px;&quot;&gt;&lt;br&gt;&lt;/p&gt;&lt;hr size=&quot;1&quot;&gt;&lt;p style=&quot;margin:0px;margin-left:4px;&quot;&gt;addSaleDate()&lt;/p&gt;&lt;p style=&quot;margin:0px;margin-left:4px;&quot;&gt;updateSaleDate()&lt;/p&gt;&lt;p style=&quot;margin:0px;margin-left:4px;&quot;&gt;setSaleID()&lt;/p&gt;&lt;p style=&quot;margin:0px;margin-left:4px;&quot;&gt;setSaleDate()&lt;/p&gt;" style="verticalAlign=top;align=left;overflow=fill;fontSize=12;fontFamily=Helvetica;html=1;fillColor=#fff2cc;strokeColor=#d6b656;" parent="1" vertex="1">
          <mxGeometry x="414" y="520" width="165" height="160" as="geometry" />
        </mxCell>
        <mxCell id="0ui3gOTNWa6qhWBBb9ut-39" style="edgeStyle=orthogonalEdgeStyle;rounded=0;orthogonalLoop=1;jettySize=auto;html=1;fillColor=#647687;strokeColor=#314354;" parent="1" source="0ui3gOTNWa6qhWBBb9ut-34" target="0ui3gOTNWa6qhWBBb9ut-4" edge="1">
          <mxGeometry relative="1" as="geometry">
            <mxPoint x="175" y="260" as="targetPoint" />
            <Array as="points">
              <mxPoint x="155" y="120" />
              <mxPoint x="155" y="300" />
            </Array>
          </mxGeometry>
        </mxCell>
        <mxCell id="0ui3gOTNWa6qhWBBb9ut-34" value="&lt;p style=&quot;margin:0px;margin-top:4px;text-align:center;&quot;&gt;&lt;b&gt;[E] Location&lt;/b&gt;&lt;/p&gt;&lt;hr size=&quot;1&quot;&gt;&lt;p style=&quot;margin:0px;margin-left:4px;&quot;&gt;LocationID&lt;/p&gt;&lt;p style=&quot;margin:0px;margin-left:4px;&quot;&gt;Coordinates&lt;/p&gt;&lt;p style=&quot;margin:0px;margin-left:4px;&quot;&gt;Address&lt;/p&gt;&lt;hr size=&quot;1&quot;&gt;&lt;p style=&quot;margin:0px;margin-left:4px;&quot;&gt;setCoordinates()&lt;/p&gt;&lt;p style=&quot;margin:0px;margin-left:4px;&quot;&gt;getDistance()&lt;/p&gt;&lt;p style=&quot;margin:0px;margin-left:4px;&quot;&gt;getRouteToLocation()&lt;/p&gt;&lt;p style=&quot;margin:0px;margin-left:4px;&quot;&gt;updateAdress()&lt;/p&gt;" style="verticalAlign=top;align=left;overflow=fill;fontSize=12;fontFamily=Helvetica;html=1;fillColor=#ffe6cc;strokeColor=#d79b00;" parent="1" vertex="1">
          <mxGeometry x="10" y="50" width="125" height="160" as="geometry" />
        </mxCell>
        <mxCell id="0ui3gOTNWa6qhWBBb9ut-49" style="edgeStyle=orthogonalEdgeStyle;rounded=0;orthogonalLoop=1;jettySize=auto;html=1;exitX=1;exitY=0.5;exitDx=0;exitDy=0;entryX=0.006;entryY=0.353;entryDx=0;entryDy=0;entryPerimeter=0;fillColor=#647687;strokeColor=#314354;" parent="1" source="0ui3gOTNWa6qhWBBb9ut-46" target="0ui3gOTNWa6qhWBBb9ut-33" edge="1">
          <mxGeometry relative="1" as="geometry" />
        </mxCell>
        <mxCell id="0ui3gOTNWa6qhWBBb9ut-46" value="&lt;p style=&quot;margin:0px;margin-top:4px;text-align:center;&quot;&gt;&lt;b&gt;[E] SaleDate&lt;/b&gt;&lt;/p&gt;&lt;hr size=&quot;1&quot;&gt;&lt;p style=&quot;margin:0px;margin-left:4px;&quot;&gt;SaleDateID&lt;br&gt;&lt;/p&gt;&lt;p style=&quot;margin:0px;margin-left:4px;&quot;&gt;SaleID&lt;/p&gt;&lt;p style=&quot;margin:0px;margin-left:4px;&quot;&gt;Date&lt;/p&gt;&lt;hr size=&quot;1&quot;&gt;&lt;p style=&quot;margin:0px;margin-left:4px;&quot;&gt;setSaleID&lt;/p&gt;&lt;p style=&quot;margin:0px;margin-left:4px;&quot;&gt;setDate&lt;/p&gt;" style="verticalAlign=top;align=left;overflow=fill;fontSize=12;fontFamily=Helvetica;html=1;fillColor=#ffe6cc;strokeColor=#d79b00;" parent="1" vertex="1">
          <mxGeometry x="255" y="540" width="125" height="140" as="geometry" />
        </mxCell>
        <mxCell id="OGgYQzT6ud-Ssf50_vJC-10" style="edgeStyle=orthogonalEdgeStyle;rounded=0;orthogonalLoop=1;jettySize=auto;html=1;entryX=1.005;entryY=0.402;entryDx=0;entryDy=0;entryPerimeter=0;exitX=0.005;exitY=0.053;exitDx=0;exitDy=0;exitPerimeter=0;" parent="1" source="0ui3gOTNWa6qhWBBb9ut-60" target="0ui3gOTNWa6qhWBBb9ut-74" edge="1">
          <mxGeometry relative="1" as="geometry" />
        </mxCell>
        <mxCell id="0ui3gOTNWa6qhWBBb9ut-60" value="&lt;p style=&quot;margin:0px;margin-top:4px;text-align:center;&quot;&gt;&lt;b&gt;[AR] DeliveryMan&lt;/b&gt;&lt;/p&gt;&lt;hr size=&quot;1&quot;&gt;&lt;p style=&quot;margin:0px;margin-left:4px;&quot;&gt;DeliveryManID&lt;/p&gt;&lt;p style=&quot;margin:0px;margin-left:4px;&quot;&gt;Data&lt;/p&gt;&lt;p style=&quot;margin:0px;margin-left:4px;&quot;&gt;Account&lt;/p&gt;&lt;p style=&quot;margin:0px;margin-left:4px;&quot;&gt;List&amp;lt;Item&amp;gt;&lt;/p&gt;&lt;p style=&quot;margin:0px;margin-left:4px;&quot;&gt;CurrentLocation&lt;/p&gt;&lt;p style=&quot;margin:0px;margin-left:4px;&quot;&gt;DestinationLocation&lt;/p&gt;&lt;hr size=&quot;1&quot;&gt;&lt;p style=&quot;border-color: var(--border-color); margin: 0px 0px 0px 4px;&quot;&gt;updateData()&lt;/p&gt;&lt;p style=&quot;border-color: var(--border-color); margin: 0px 0px 0px 4px;&quot;&gt;updateAccount()&lt;/p&gt;&lt;p style=&quot;border-color: var(--border-color); margin: 0px 0px 0px 4px;&quot;&gt;setCurrentLocation()&lt;/p&gt;&lt;p style=&quot;border-color: var(--border-color); margin: 0px 0px 0px 4px;&quot;&gt;setDestinationLocation()&lt;/p&gt;&lt;p style=&quot;border-color: var(--border-color); margin: 0px 0px 0px 4px;&quot;&gt;goToDestination()&lt;/p&gt;&lt;p style=&quot;border-color: var(--border-color); margin: 0px 0px 0px 4px;&quot;&gt;pickItems()&lt;/p&gt;&lt;p style=&quot;border-color: var(--border-color); margin: 0px 0px 0px 4px;&quot;&gt;deliverItems()&lt;/p&gt;&lt;p style=&quot;border-color: var(--border-color); margin: 0px 0px 0px 4px;&quot;&gt;setCoordinates()&lt;/p&gt;&lt;p style=&quot;border-color: var(--border-color); margin: 0px 0px 0px 4px;&quot;&gt;getDistance(Location)&lt;/p&gt;&lt;p style=&quot;border-color: var(--border-color); margin: 0px 0px 0px 4px;&quot;&gt;getRouteToLocation()&lt;/p&gt;&lt;p style=&quot;border-color: var(--border-color); margin: 0px 0px 0px 4px;&quot;&gt;&lt;br&gt;&lt;/p&gt;" style="verticalAlign=top;align=left;overflow=fill;fontSize=12;fontFamily=Helvetica;html=1;fillColor=#d5e8d4;strokeColor=#82b366;" parent="1" vertex="1">
          <mxGeometry x="1617" y="222" width="140" height="278" as="geometry" />
        </mxCell>
        <mxCell id="0ui3gOTNWa6qhWBBb9ut-63" value="[VO] Account" style="swimlane;childLayout=stackLayout;horizontal=1;startSize=30;horizontalStack=0;rounded=1;fontSize=14;fontStyle=0;strokeWidth=2;resizeParent=0;resizeLast=1;shadow=0;dashed=0;align=center;" parent="1" vertex="1">
          <mxGeometry x="1853.0006305711456" y="312" width="131.78936942885437" height="110" as="geometry" />
        </mxCell>
        <mxCell id="0ui3gOTNWa6qhWBBb9ut-64" value="+email&#xa;+user&#xa;+password&#xa;" style="align=left;spacingLeft=4;fontSize=12;verticalAlign=top;resizable=0;rotatable=0;part=1;" parent="0ui3gOTNWa6qhWBBb9ut-63" vertex="1">
          <mxGeometry y="30" width="131.78936942885437" height="80" as="geometry" />
        </mxCell>
        <mxCell id="OGgYQzT6ud-Ssf50_vJC-9" style="edgeStyle=orthogonalEdgeStyle;rounded=0;orthogonalLoop=1;jettySize=auto;html=1;entryX=0;entryY=0.5;entryDx=0;entryDy=0;" parent="1" source="0ui3gOTNWa6qhWBBb9ut-70" target="0ui3gOTNWa6qhWBBb9ut-74" edge="1">
          <mxGeometry relative="1" as="geometry" />
        </mxCell>
        <mxCell id="0ui3gOTNWa6qhWBBb9ut-70" value="&lt;p style=&quot;margin:0px;margin-top:4px;text-align:center;&quot;&gt;&lt;b&gt;[AR] ShippingCalendar&lt;/b&gt;&lt;/p&gt;&lt;hr size=&quot;1&quot;&gt;&lt;p style=&quot;margin:0px;margin-left:4px;&quot;&gt;CalendarID&lt;/p&gt;&lt;p style=&quot;margin:0px;margin-left:4px;&quot;&gt;List&amp;lt;ShippingDate&amp;gt;&lt;/p&gt;&lt;p style=&quot;margin:0px;margin-left:4px;&quot;&gt;&lt;br&gt;&lt;/p&gt;&lt;hr size=&quot;1&quot;&gt;&lt;p style=&quot;margin:0px;margin-left:4px;&quot;&gt;addShippingDate()&lt;/p&gt;&lt;p style=&quot;margin:0px;margin-left:4px;&quot;&gt;updateShippingDate()&lt;/p&gt;&lt;p style=&quot;border-color: var(--border-color); margin: 0px 0px 0px 4px;&quot;&gt;setSaleID()&lt;/p&gt;&lt;p style=&quot;border-color: var(--border-color); margin: 0px 0px 0px 4px;&quot;&gt;setDate()&lt;/p&gt;" style="verticalAlign=top;align=left;overflow=fill;fontSize=12;fontFamily=Helvetica;html=1;fillColor=#d5e8d4;strokeColor=#82b366;" parent="1" vertex="1">
          <mxGeometry x="1265" y="462" width="165" height="158" as="geometry" />
        </mxCell>
        <mxCell id="0ui3gOTNWa6qhWBBb9ut-71" style="edgeStyle=orthogonalEdgeStyle;rounded=0;orthogonalLoop=1;jettySize=auto;html=1;exitX=1;exitY=0.5;exitDx=0;exitDy=0;fillColor=#647687;strokeColor=#314354;" parent="1" source="0ui3gOTNWa6qhWBBb9ut-72" edge="1">
          <mxGeometry relative="1" as="geometry">
            <mxPoint x="1270" y="550" as="targetPoint" />
            <Array as="points">
              <mxPoint x="1225" y="560" />
              <mxPoint x="1250" y="560" />
              <mxPoint x="1250" y="550" />
            </Array>
          </mxGeometry>
        </mxCell>
        <mxCell id="0ui3gOTNWa6qhWBBb9ut-72" value="&lt;p style=&quot;margin:0px;margin-top:4px;text-align:center;&quot;&gt;&lt;b&gt;[E] ShippinDate&lt;/b&gt;&lt;/p&gt;&lt;hr size=&quot;1&quot;&gt;&lt;p style=&quot;margin:0px;margin-left:4px;&quot;&gt;ShippingDateID&lt;br&gt;&lt;/p&gt;&lt;p style=&quot;margin:0px;margin-left:4px;&quot;&gt;SaleID&lt;/p&gt;&lt;p style=&quot;margin:0px;margin-left:4px;&quot;&gt;Date&lt;/p&gt;&lt;hr size=&quot;1&quot;&gt;&lt;p style=&quot;margin:0px;margin-left:4px;&quot;&gt;setSaleID()&lt;/p&gt;&lt;p style=&quot;margin:0px;margin-left:4px;&quot;&gt;setDate()&lt;/p&gt;" style="verticalAlign=top;align=left;overflow=fill;fontSize=12;fontFamily=Helvetica;html=1;fillColor=#d5e8d4;strokeColor=#82b366;" parent="1" vertex="1">
          <mxGeometry x="1100" y="480" width="125" height="140" as="geometry" />
        </mxCell>
        <mxCell id="OGgYQzT6ud-Ssf50_vJC-63" style="edgeStyle=orthogonalEdgeStyle;rounded=0;orthogonalLoop=1;jettySize=auto;html=1;entryX=0.5;entryY=0;entryDx=0;entryDy=0;fontSize=51;" parent="1" source="0ui3gOTNWa6qhWBBb9ut-74" target="OGgYQzT6ud-Ssf50_vJC-22" edge="1">
          <mxGeometry relative="1" as="geometry">
            <Array as="points">
              <mxPoint x="1470" y="880" />
              <mxPoint x="1070" y="880" />
            </Array>
          </mxGeometry>
        </mxCell>
        <mxCell id="0ui3gOTNWa6qhWBBb9ut-74" value="&lt;p style=&quot;margin:0px;margin-top:4px;text-align:center;&quot;&gt;&lt;b&gt;[AR] Delivery&lt;/b&gt;&lt;/p&gt;&lt;hr size=&quot;1&quot;&gt;&lt;p style=&quot;margin:0px;margin-left:4px;&quot;&gt;DeliveryID&lt;/p&gt;&lt;p style=&quot;margin:0px;margin-left:4px;&quot;&gt;SaleOrderID&lt;/p&gt;&lt;p style=&quot;margin:0px;margin-left:4px;&quot;&gt;DeliveryManID&lt;/p&gt;&lt;p style=&quot;margin:0px;margin-left:4px;&quot;&gt;ShippingCalendarID&lt;/p&gt;&lt;hr size=&quot;1&quot;&gt;&lt;p style=&quot;border-color: var(--border-color); margin: 0px 0px 0px 4px;&quot;&gt;&lt;span style=&quot;background-color: initial;&quot;&gt;setDeliverDate()&lt;/span&gt;&lt;/p&gt;&lt;p style=&quot;border-color: var(--border-color); margin: 0px 0px 0px 4px;&quot;&gt;assignDeliveryMan()&lt;/p&gt;&lt;p style=&quot;border-color: var(--border-color); margin: 0px 0px 0px 4px;&quot;&gt;&lt;span style=&quot;background-color: initial;&quot;&gt;deliver()&lt;/span&gt;&lt;br&gt;&lt;/p&gt;&lt;p style=&quot;border-color: var(--border-color); margin: 0px 0px 0px 4px;&quot;&gt;updateOrderStatus()&lt;br style=&quot;border-color: var(--border-color);&quot;&gt;&lt;/p&gt;&lt;div&gt;&lt;br&gt;&lt;/div&gt;" style="verticalAlign=top;align=left;overflow=fill;fontSize=12;fontFamily=Helvetica;html=1;fillColor=#d5e8d4;strokeColor=#82b366;" parent="1" vertex="1">
          <mxGeometry x="1430" y="222" width="120" height="170" as="geometry" />
        </mxCell>
        <mxCell id="OGgYQzT6ud-Ssf50_vJC-3" style="edgeStyle=orthogonalEdgeStyle;rounded=0;orthogonalLoop=1;jettySize=auto;html=1;exitX=0;exitY=0.5;exitDx=0;exitDy=0;entryX=0.995;entryY=0.059;entryDx=0;entryDy=0;entryPerimeter=0;" parent="1" source="OGgYQzT6ud-Ssf50_vJC-1" target="0ui3gOTNWa6qhWBBb9ut-60" edge="1">
          <mxGeometry relative="1" as="geometry">
            <Array as="points">
              <mxPoint x="1795" y="201" />
              <mxPoint x="1795" y="238" />
            </Array>
          </mxGeometry>
        </mxCell>
        <mxCell id="OGgYQzT6ud-Ssf50_vJC-1" value="&lt;p style=&quot;margin:0px;margin-top:4px;text-align:center;&quot;&gt;&lt;b&gt;[E] Location&lt;/b&gt;&lt;/p&gt;&lt;hr size=&quot;1&quot;&gt;&lt;p style=&quot;margin:0px;margin-left:4px;&quot;&gt;LocationID&lt;/p&gt;&lt;p style=&quot;margin:0px;margin-left:4px;&quot;&gt;Coordinates&lt;/p&gt;&lt;p style=&quot;margin:0px;margin-left:4px;&quot;&gt;Address&lt;/p&gt;&lt;p style=&quot;margin:0px;margin-left:4px;&quot;&gt;&lt;br&gt;&lt;/p&gt;&lt;hr size=&quot;1&quot;&gt;&lt;p style=&quot;margin:0px;margin-left:4px;&quot;&gt;setCoordinates()&lt;/p&gt;&lt;p style=&quot;margin:0px;margin-left:4px;&quot;&gt;getDistance()&lt;/p&gt;&lt;p style=&quot;margin:0px;margin-left:4px;&quot;&gt;getRouteToLocation()&lt;/p&gt;&lt;p style=&quot;margin:0px;margin-left:4px;&quot;&gt;updateAdress()&lt;/p&gt;" style="verticalAlign=top;align=left;overflow=fill;fontSize=12;fontFamily=Helvetica;html=1;fillColor=#d5e8d4;strokeColor=#82b366;" parent="1" vertex="1">
          <mxGeometry x="1833.45" y="112" width="125" height="178" as="geometry" />
        </mxCell>
        <mxCell id="OGgYQzT6ud-Ssf50_vJC-8" style="edgeStyle=orthogonalEdgeStyle;rounded=0;orthogonalLoop=1;jettySize=auto;html=1;entryX=1.02;entryY=0.236;entryDx=0;entryDy=0;entryPerimeter=0;" parent="1" source="0ui3gOTNWa6qhWBBb9ut-64" target="0ui3gOTNWa6qhWBBb9ut-60" edge="1">
          <mxGeometry relative="1" as="geometry" />
        </mxCell>
        <mxCell id="OGgYQzT6ud-Ssf50_vJC-18" style="edgeStyle=orthogonalEdgeStyle;rounded=0;orthogonalLoop=1;jettySize=auto;html=1;exitX=0.5;exitY=0;exitDx=0;exitDy=0;" parent="1" source="OGgYQzT6ud-Ssf50_vJC-14" target="0ui3gOTNWa6qhWBBb9ut-34" edge="1">
          <mxGeometry relative="1" as="geometry">
            <Array as="points">
              <mxPoint x="-55" y="120" />
            </Array>
          </mxGeometry>
        </mxCell>
        <mxCell id="OGgYQzT6ud-Ssf50_vJC-14" value="[VO] Address" style="swimlane;childLayout=stackLayout;horizontal=1;startSize=30;horizontalStack=0;rounded=1;fontSize=14;fontStyle=0;strokeWidth=2;resizeParent=0;resizeLast=1;shadow=0;dashed=0;align=center;arcSize=0;" parent="1" vertex="1">
          <mxGeometry x="-110" y="190" width="110" height="80" as="geometry" />
        </mxCell>
        <mxCell id="OGgYQzT6ud-Ssf50_vJC-15" value="+address&#xa;+town&#xa;" style="align=left;spacingLeft=4;fontSize=12;verticalAlign=top;resizable=0;rotatable=0;part=1;" parent="OGgYQzT6ud-Ssf50_vJC-14" vertex="1">
          <mxGeometry y="30" width="110" height="50" as="geometry" />
        </mxCell>
        <mxCell id="OGgYQzT6ud-Ssf50_vJC-19" value="[VO] Address" style="swimlane;childLayout=stackLayout;horizontal=1;startSize=30;horizontalStack=0;rounded=1;fontSize=14;fontStyle=0;strokeWidth=2;resizeParent=0;resizeLast=1;shadow=0;dashed=0;align=center;arcSize=0;" parent="1" vertex="1">
          <mxGeometry x="2017" y="40" width="110" height="80" as="geometry" />
        </mxCell>
        <mxCell id="OGgYQzT6ud-Ssf50_vJC-20" value="+address&#xa;+town&#xa;" style="align=left;spacingLeft=4;fontSize=12;verticalAlign=top;resizable=0;rotatable=0;part=1;" parent="OGgYQzT6ud-Ssf50_vJC-19" vertex="1">
          <mxGeometry y="30" width="110" height="50" as="geometry" />
        </mxCell>
        <mxCell id="OGgYQzT6ud-Ssf50_vJC-21" style="edgeStyle=orthogonalEdgeStyle;rounded=0;orthogonalLoop=1;jettySize=auto;html=1;" parent="1" source="OGgYQzT6ud-Ssf50_vJC-20" target="OGgYQzT6ud-Ssf50_vJC-1" edge="1">
          <mxGeometry relative="1" as="geometry">
            <Array as="points">
              <mxPoint x="1988" y="95" />
              <mxPoint x="1988" y="180" />
            </Array>
          </mxGeometry>
        </mxCell>
        <mxCell id="OGgYQzT6ud-Ssf50_vJC-48" style="edgeStyle=orthogonalEdgeStyle;rounded=0;orthogonalLoop=1;jettySize=auto;html=1;exitX=0;exitY=0.25;exitDx=0;exitDy=0;entryX=1.007;entryY=0.205;entryDx=0;entryDy=0;entryPerimeter=0;" parent="1" source="OGgYQzT6ud-Ssf50_vJC-22" target="OGgYQzT6ud-Ssf50_vJC-40" edge="1">
          <mxGeometry relative="1" as="geometry">
            <Array as="points">
              <mxPoint x="645" y="928" />
              <mxPoint x="645" y="1020" />
              <mxPoint x="291" y="1020" />
            </Array>
          </mxGeometry>
        </mxCell>
        <mxCell id="OGgYQzT6ud-Ssf50_vJC-22" value="&lt;p style=&quot;margin:0px;margin-top:4px;text-align:center;&quot;&gt;&lt;b&gt;[AR] Inventory&lt;/b&gt;&lt;/p&gt;&lt;hr size=&quot;1&quot;&gt;&lt;p style=&quot;margin:0px;margin-left:4px;&quot;&gt;InventoryID&lt;/p&gt;&lt;p style=&quot;margin:0px;margin-left:4px;&quot;&gt;Map&amp;lt;Item, stock&amp;gt;&lt;/p&gt;&lt;hr size=&quot;1&quot;&gt;&lt;p style=&quot;border-color: var(--border-color); margin: 0px 0px 0px 4px;&quot;&gt;updateItems()&lt;/p&gt;&lt;p style=&quot;border-color: var(--border-color); margin: 0px 0px 0px 4px;&quot;&gt;&lt;br&gt;&lt;/p&gt;" style="verticalAlign=top;align=left;overflow=fill;fontSize=12;fontFamily=Helvetica;html=1;fillColor=#d5e8d4;strokeColor=#82b366;" parent="1" vertex="1">
          <mxGeometry x="1000" y="900" width="140" height="110" as="geometry" />
        </mxCell>
        <mxCell id="OGgYQzT6ud-Ssf50_vJC-37" style="edgeStyle=orthogonalEdgeStyle;rounded=0;orthogonalLoop=1;jettySize=auto;html=1;" parent="1" source="OGgYQzT6ud-Ssf50_vJC-23" target="OGgYQzT6ud-Ssf50_vJC-22" edge="1">
          <mxGeometry relative="1" as="geometry" />
        </mxCell>
        <mxCell id="OGgYQzT6ud-Ssf50_vJC-23" value="&lt;p style=&quot;margin:0px;margin-top:4px;text-align:center;&quot;&gt;&lt;b&gt;[AR] Item&lt;/b&gt;&lt;/p&gt;&lt;hr size=&quot;1&quot;&gt;&lt;p style=&quot;margin:0px;margin-left:4px;&quot;&gt;ItemID&lt;/p&gt;&lt;p style=&quot;margin:0px;margin-left:4px;&quot;&gt;ProviderID&lt;/p&gt;&lt;p style=&quot;margin:0px;margin-left:4px;&quot;&gt;Price&lt;/p&gt;&lt;hr size=&quot;1&quot;&gt;&lt;p style=&quot;border-color: var(--border-color); margin: 0px 0px 0px 4px;&quot;&gt;updateDataProvider()&lt;/p&gt;&lt;p style=&quot;border-color: var(--border-color); margin: 0px 0px 0px 4px;&quot;&gt;updateAccountProvider()&lt;/p&gt;&lt;p style=&quot;border-color: var(--border-color); margin: 0px 0px 0px 4px;&quot;&gt;updatePrice()&lt;/p&gt;&lt;p style=&quot;border-color: var(--border-color); margin: 0px 0px 0px 4px;&quot;&gt;&lt;br&gt;&lt;/p&gt;&lt;p style=&quot;border-color: var(--border-color); margin: 0px 0px 0px 4px;&quot;&gt;&lt;br&gt;&lt;/p&gt;" style="verticalAlign=top;align=left;overflow=fill;fontSize=12;fontFamily=Helvetica;html=1;fillColor=#d5e8d4;strokeColor=#82b366;" parent="1" vertex="1">
          <mxGeometry x="1000" y="1040" width="140" height="140" as="geometry" />
        </mxCell>
        <mxCell id="OGgYQzT6ud-Ssf50_vJC-24" value="[VO] Price" style="swimlane;childLayout=stackLayout;horizontal=1;startSize=30;horizontalStack=0;rounded=1;fontSize=14;fontStyle=0;strokeWidth=2;resizeParent=0;resizeLast=1;shadow=0;dashed=0;align=center;arcSize=0;" parent="1" vertex="1">
          <mxGeometry x="850" y="1050" width="110" height="80" as="geometry" />
        </mxCell>
        <mxCell id="OGgYQzT6ud-Ssf50_vJC-25" value="+purchasePrice&#xa;+salePrace&#xa;" style="align=left;spacingLeft=4;fontSize=12;verticalAlign=top;resizable=0;rotatable=0;part=1;" parent="OGgYQzT6ud-Ssf50_vJC-24" vertex="1">
          <mxGeometry y="30" width="110" height="50" as="geometry" />
        </mxCell>
        <mxCell id="OGgYQzT6ud-Ssf50_vJC-34" value="" style="group" parent="1" vertex="1" connectable="0">
          <mxGeometry x="1210" y="910" width="301.45000000000005" height="310" as="geometry" />
        </mxCell>
        <mxCell id="OGgYQzT6ud-Ssf50_vJC-26" value="&lt;p style=&quot;margin:0px;margin-top:4px;text-align:center;&quot;&gt;&lt;b&gt;[E] Provider&lt;/b&gt;&lt;/p&gt;&lt;hr size=&quot;1&quot;&gt;&lt;p style=&quot;margin:0px;margin-left:4px;&quot;&gt;ProviderID&lt;/p&gt;&lt;p style=&quot;margin:0px;margin-left:4px;&quot;&gt;Data&lt;/p&gt;&lt;p style=&quot;margin:0px;margin-left:4px;&quot;&gt;Account&lt;/p&gt;&lt;hr size=&quot;1&quot;&gt;&lt;p style=&quot;border-color: var(--border-color); margin: 0px 0px 0px 4px;&quot;&gt;updateData()&lt;/p&gt;&lt;p style=&quot;border-color: var(--border-color); margin: 0px 0px 0px 4px;&quot;&gt;updateAccount()&lt;/p&gt;" style="verticalAlign=top;align=left;overflow=fill;fontSize=12;fontFamily=Helvetica;html=1;fillColor=#d5e8d4;strokeColor=#82b366;" parent="OGgYQzT6ud-Ssf50_vJC-34" vertex="1">
          <mxGeometry width="120" height="120" as="geometry" />
        </mxCell>
        <mxCell id="OGgYQzT6ud-Ssf50_vJC-27" value="" style="group;" parent="OGgYQzT6ud-Ssf50_vJC-34" vertex="1" connectable="0">
          <mxGeometry x="120" y="60" width="181.45" height="270" as="geometry" />
        </mxCell>
        <mxCell id="OGgYQzT6ud-Ssf50_vJC-28" style="edgeStyle=orthogonalEdgeStyle;rounded=0;orthogonalLoop=1;jettySize=auto;html=1;exitX=0.008;exitY=0.228;exitDx=0;exitDy=0;exitPerimeter=0;fillColor=#647687;strokeColor=#314354;" parent="OGgYQzT6ud-Ssf50_vJC-27" source="OGgYQzT6ud-Ssf50_vJC-29" edge="1">
          <mxGeometry relative="1" as="geometry">
            <mxPoint as="targetPoint" />
            <Array as="points">
              <mxPoint x="35.942555298778466" y="45" />
              <mxPoint x="35.942555298778466" />
              <mxPoint />
            </Array>
          </mxGeometry>
        </mxCell>
        <mxCell id="OGgYQzT6ud-Ssf50_vJC-29" value="[VO] Account" style="swimlane;childLayout=stackLayout;horizontal=1;startSize=30;horizontalStack=0;rounded=1;fontSize=14;fontStyle=0;strokeWidth=2;resizeParent=0;resizeLast=1;shadow=0;dashed=0;align=center;" parent="OGgYQzT6ud-Ssf50_vJC-27" vertex="1">
          <mxGeometry x="49.66" y="20" width="131.79" height="110" as="geometry" />
        </mxCell>
        <mxCell id="OGgYQzT6ud-Ssf50_vJC-30" value="+email&#xa;+user&#xa;+password&#xa;" style="align=left;spacingLeft=4;fontSize=12;verticalAlign=top;resizable=0;rotatable=0;part=1;" parent="OGgYQzT6ud-Ssf50_vJC-29" vertex="1">
          <mxGeometry y="30" width="131.79" height="80" as="geometry" />
        </mxCell>
        <mxCell id="OGgYQzT6ud-Ssf50_vJC-31" value="[VO] Data " style="swimlane;childLayout=stackLayout;horizontal=1;startSize=30;horizontalStack=0;rounded=1;fontSize=14;fontStyle=0;strokeWidth=2;resizeParent=0;resizeLast=1;shadow=0;dashed=0;align=center;" parent="OGgYQzT6ud-Ssf50_vJC-27" vertex="1">
          <mxGeometry x="-29.998296467481026" y="170" width="131.78936942885437" height="100" as="geometry" />
        </mxCell>
        <mxCell id="OGgYQzT6ud-Ssf50_vJC-32" value="+personalID&#xa;+name&#xa;+email&#xa;+phone&#xa;" style="align=left;spacingLeft=4;fontSize=12;verticalAlign=top;resizable=0;rotatable=0;part=1;" parent="OGgYQzT6ud-Ssf50_vJC-31" vertex="1">
          <mxGeometry y="30" width="131.78936942885437" height="70" as="geometry" />
        </mxCell>
        <mxCell id="OGgYQzT6ud-Ssf50_vJC-33" style="edgeStyle=orthogonalEdgeStyle;rounded=0;orthogonalLoop=1;jettySize=auto;html=1;exitX=0.5;exitY=0;exitDx=0;exitDy=0;fillColor=#647687;strokeColor=#314354;" parent="OGgYQzT6ud-Ssf50_vJC-27" source="OGgYQzT6ud-Ssf50_vJC-31" edge="1">
          <mxGeometry relative="1" as="geometry">
            <mxPoint as="targetPoint" />
            <Array as="points">
              <mxPoint x="36" />
            </Array>
          </mxGeometry>
        </mxCell>
        <mxCell id="OGgYQzT6ud-Ssf50_vJC-35" style="edgeStyle=orthogonalEdgeStyle;rounded=0;orthogonalLoop=1;jettySize=auto;html=1;exitX=0.25;exitY=1;exitDx=0;exitDy=0;" parent="1" source="OGgYQzT6ud-Ssf50_vJC-25" target="OGgYQzT6ud-Ssf50_vJC-23" edge="1">
          <mxGeometry relative="1" as="geometry">
            <mxPoint x="950" y="1170" as="targetPoint" />
          </mxGeometry>
        </mxCell>
        <mxCell id="OGgYQzT6ud-Ssf50_vJC-36" style="edgeStyle=orthogonalEdgeStyle;rounded=0;orthogonalLoop=1;jettySize=auto;html=1;entryX=0.999;entryY=0.417;entryDx=0;entryDy=0;entryPerimeter=0;" parent="1" source="OGgYQzT6ud-Ssf50_vJC-26" target="OGgYQzT6ud-Ssf50_vJC-23" edge="1">
          <mxGeometry relative="1" as="geometry" />
        </mxCell>
        <mxCell id="OGgYQzT6ud-Ssf50_vJC-39" value="&lt;p style=&quot;margin:0px;margin-top:4px;text-align:center;&quot;&gt;&lt;b&gt;[AR] Accounting&lt;/b&gt;&lt;/p&gt;&lt;hr size=&quot;1&quot;&gt;&lt;p style=&quot;margin:0px;margin-left:4px;&quot;&gt;AccountingID&lt;/p&gt;&lt;p style=&quot;margin:0px;margin-left:4px;&quot;&gt;List&amp;lt;SaleOrder&amp;gt;&lt;/p&gt;&lt;p style=&quot;margin:0px;margin-left:4px;&quot;&gt;List&amp;lt;PurchaseOrder&amp;gt;&lt;/p&gt;&lt;p style=&quot;margin:0px;margin-left:4px;&quot;&gt;List&amp;lt;Commission&amp;gt;&lt;/p&gt;&lt;hr size=&quot;1&quot;&gt;&lt;p style=&quot;border-color: var(--border-color); margin: 0px 0px 0px 4px;&quot;&gt;updateSales()&lt;/p&gt;&lt;p style=&quot;border-color: var(--border-color); margin: 0px 0px 0px 4px;&quot;&gt;updatePurchases()&lt;/p&gt;&lt;p style=&quot;border-color: var(--border-color); margin: 0px 0px 0px 4px;&quot;&gt;&lt;br&gt;&lt;/p&gt;" style="verticalAlign=top;align=left;overflow=fill;fontSize=12;fontFamily=Helvetica;html=1;fillColor=#d5e8d4;strokeColor=#82b366;" parent="1" vertex="1">
          <mxGeometry x="-60" y="890" width="140" height="150" as="geometry" />
        </mxCell>
        <mxCell id="OGgYQzT6ud-Ssf50_vJC-43" style="edgeStyle=orthogonalEdgeStyle;rounded=0;orthogonalLoop=1;jettySize=auto;html=1;entryX=1.03;entryY=0.444;entryDx=0;entryDy=0;entryPerimeter=0;" parent="1" source="OGgYQzT6ud-Ssf50_vJC-40" target="OGgYQzT6ud-Ssf50_vJC-39" edge="1">
          <mxGeometry relative="1" as="geometry">
            <mxPoint x="90.00000000000023" y="960" as="targetPoint" />
          </mxGeometry>
        </mxCell>
        <mxCell id="OGgYQzT6ud-Ssf50_vJC-40" value="&lt;p style=&quot;margin:0px;margin-top:4px;text-align:center;&quot;&gt;&lt;b&gt;[AR] PurchaseOrder&lt;/b&gt;&lt;/p&gt;&lt;hr size=&quot;1&quot;&gt;&lt;p style=&quot;margin:0px;margin-left:4px;&quot;&gt;PurchasheOrderID&lt;/p&gt;&lt;p style=&quot;margin:0px;margin-left:4px;&quot;&gt;InventoryID&lt;/p&gt;&lt;p style=&quot;margin:0px;margin-left:4px;&quot;&gt;List&amp;lt;Item&amp;gt;&lt;/p&gt;&lt;p style=&quot;margin:0px;margin-left:4px;&quot;&gt;ProviderID&lt;/p&gt;&lt;p style=&quot;margin:0px;margin-left:4px;&quot;&gt;Date&lt;/p&gt;&lt;p style=&quot;margin:0px;margin-left:4px;&quot;&gt;Total&lt;/p&gt;&lt;p style=&quot;margin:0px;margin-left:4px;&quot;&gt;Status&lt;/p&gt;&lt;hr size=&quot;1&quot;&gt;&lt;p style=&quot;border-color: var(--border-color); margin: 0px 0px 0px 4px;&quot;&gt;updateSales()&lt;/p&gt;&lt;p style=&quot;border-color: var(--border-color); margin: 0px 0px 0px 4px;&quot;&gt;updatePurchase()&lt;/p&gt;&lt;p style=&quot;border-color: var(--border-color); margin: 0px 0px 0px 4px;&quot;&gt;setProvider()&lt;/p&gt;&lt;p style=&quot;border-color: var(--border-color); margin: 0px 0px 0px 4px;&quot;&gt;setPurchaseDate()&lt;/p&gt;&lt;p style=&quot;border-color: var(--border-color); margin: 0px 0px 0px 4px;&quot;&gt;updateStatus()&lt;/p&gt;&lt;p style=&quot;border-color: var(--border-color); margin: 0px 0px 0px 4px;&quot;&gt;&lt;br&gt;&lt;/p&gt;" style="verticalAlign=top;align=left;overflow=fill;fontSize=12;fontFamily=Helvetica;html=1;fillColor=#d5e8d4;strokeColor=#82b366;" parent="1" vertex="1">
          <mxGeometry x="150" y="970" width="140" height="240" as="geometry" />
        </mxCell>
        <mxCell id="OGgYQzT6ud-Ssf50_vJC-44" style="edgeStyle=orthogonalEdgeStyle;rounded=0;orthogonalLoop=1;jettySize=auto;html=1;entryX=0;entryY=0.538;entryDx=0;entryDy=0;entryPerimeter=0;" parent="1" source="OGgYQzT6ud-Ssf50_vJC-42" target="OGgYQzT6ud-Ssf50_vJC-39" edge="1">
          <mxGeometry relative="1" as="geometry">
            <mxPoint x="-90" y="1090" as="targetPoint" />
          </mxGeometry>
        </mxCell>
        <mxCell id="OGgYQzT6ud-Ssf50_vJC-42" value="&lt;p style=&quot;margin:0px;margin-top:4px;text-align:center;&quot;&gt;&lt;b&gt;[AR] Commission&lt;/b&gt;&lt;/p&gt;&lt;hr size=&quot;1&quot;&gt;&lt;p style=&quot;margin:0px;margin-left:4px;&quot;&gt;CommissionID&lt;/p&gt;&lt;p style=&quot;margin:0px;margin-left:4px;&quot;&gt;SalesmanID&lt;/p&gt;&lt;p style=&quot;margin:0px;margin-left:4px;&quot;&gt;SaleOrderID&lt;/p&gt;&lt;p style=&quot;margin:0px;margin-left:4px;&quot;&gt;Total&lt;/p&gt;&lt;p style=&quot;margin:0px;margin-left:4px;&quot;&gt;Status&lt;/p&gt;&lt;hr size=&quot;1&quot;&gt;&lt;p style=&quot;border-color: var(--border-color); margin: 0px 0px 0px 4px;&quot;&gt;updateSaleOrder()&lt;/p&gt;&lt;p style=&quot;border-color: var(--border-color); margin: 0px 0px 0px 4px;&quot;&gt;updateSalesman()&lt;/p&gt;&lt;p style=&quot;border-color: var(--border-color); margin: 0px 0px 0px 4px;&quot;&gt;updateStatus()&lt;/p&gt;&lt;p style=&quot;border-color: var(--border-color); margin: 0px 0px 0px 4px;&quot;&gt;&lt;br&gt;&lt;/p&gt;" style="verticalAlign=top;align=left;overflow=fill;fontSize=12;fontFamily=Helvetica;html=1;fillColor=#d5e8d4;strokeColor=#82b366;" parent="1" vertex="1">
          <mxGeometry x="-270" y="1050" width="140" height="170" as="geometry" />
        </mxCell>
        <mxCell id="OGgYQzT6ud-Ssf50_vJC-54" value="Sales" style="text;html=1;strokeColor=none;fillColor=none;align=center;verticalAlign=middle;whiteSpace=wrap;rounded=0;fontSize=51;fontStyle=2" parent="1" vertex="1">
          <mxGeometry x="780" y="60" width="60" height="40" as="geometry" />
        </mxCell>
        <mxCell id="OGgYQzT6ud-Ssf50_vJC-57" value="Shipping" style="text;html=1;strokeColor=none;fillColor=none;align=center;verticalAlign=middle;whiteSpace=wrap;rounded=0;fontSize=51;fontStyle=2" parent="1" vertex="1">
          <mxGeometry x="1165" y="60" width="60" height="40" as="geometry" />
        </mxCell>
        <mxCell id="OGgYQzT6ud-Ssf50_vJC-58" value="Warehouse" style="text;html=1;strokeColor=none;fillColor=none;align=center;verticalAlign=middle;whiteSpace=wrap;rounded=0;fontSize=51;fontStyle=2" parent="1" vertex="1">
          <mxGeometry x="940" y="1250" width="60" height="40" as="geometry" />
        </mxCell>
        <mxCell id="OGgYQzT6ud-Ssf50_vJC-60" value="Accounting" style="text;html=1;strokeColor=none;fillColor=none;align=center;verticalAlign=middle;whiteSpace=wrap;rounded=0;fontSize=51;fontStyle=2" parent="1" vertex="1">
          <mxGeometry x="-250" y="860" width="60" height="40" as="geometry" />
        </mxCell>
      </root>
    </mxGraphModel>
  </diagram>
</mxfile>
